<svg width="16px" height="17px" viewBox="0 0 16 17" version="1.1" xmlns="http://www.w3.org/2000/svg" xmlns:xlink="http://www.w3.org/1999/xlink">
    <g id="Symbols" stroke="none" stroke-width="1" fill="none" fill-rule="evenodd">
        <g id="Mobile-Nav-Guest" transform="translate(-16.000000, -13.000000)" fill="#FFFFFF">
            <g id="App-Icon---Grid" transform="translate(14.000000, 11.000000)">
                <path d="M2,6.03125 L2,2 L5.984375,2 L5.984375,6.03125 L2,6.03125 Z M8,18.03125 L8,14 L11.984375,14 L11.984375,18.03125 L8,18.03125 Z M2,18.03125 L2,14 L5.984375,14 L5.984375,18.03125 L2,18.03125 Z M2,12.03125 L2,8 L5.984375,8 L5.984375,12.03125 L2,12.03125 Z M8,12.03125 L8,8 L11.984375,8 L11.984375,12.03125 L8,12.03125 Z M14,2 L17.984375,2 L17.984375,6.03125 L14,6.03125 L14,2 Z M8,6.03125 L8,2 L11.984375,2 L11.984375,6.03125 L8,6.03125 Z M14,12.03125 L14,8 L17.984375,8 L17.984375,12.03125 L14,12.03125 Z M14,18.03125 L14,14 L17.984375,14 L17.984375,18.03125 L14,18.03125 Z" id=""></path>
            </g>
        </g>
    </g>
</svg>
