<svg width="360px" height="42px" viewBox="0 0 360 42" version="1.1" xmlns="http://www.w3.org/2000/svg" xmlns:xlink="http://www.w3.org/1999/xlink">
    <g id="latest" stroke="none" stroke-width="1" fill="none" fill-rule="evenodd">
        <g id="09-mobile-logged-profile">
            <g id="Group-2">
                <rect id="Rectangle-5" fill="#0077C5" x="0" y="0" width="360" height="42"></rect>
                <g id="Group" transform="translate(120.000000, 11.000000)" fill="#FEFEFE">
                    <path d="M17.3596568,6.39133508 C21.808563,1.22630892 27.1078094,-1.28259688 29.0192063,0.650860871 C30.2993161,1.94479946 29.8476986,5.09471444 28.088949,8.55366083 L2.6839581,9.76356195 C3.3727394,8.67703498 4.22825406,7.46087575 5.14988713,6.39133508 C9.59793096,1.22630892 14.8980398,-1.28259688 16.8094366,0.650860871 C17.993531,1.84854378 17.7112342,4.59615174 16.2681281,7.74040463 C16.6125188,7.28773473 16.9764575,6.83715086 17.3596568,6.39133508 Z M2.37268415,10.2255296 L2.37843357,10.2371518 L26.4403585,11.3117586 C25.8749024,12.138127 25.2729374,12.9096625 24.5795566,13.7145745 C20.1309378,18.8796007 14.8682003,21.2657283 12.9562285,19.3328666 C11.7787459,18.1423358 12.0360328,15.4680371 13.4460796,12.3821933 C13.1048512,12.8306911 12.7472368,13.2759109 12.369212,13.7145745 C7.92030579,18.8796007 2.65699329,21.2657283 0.746171386,19.3328666 C-0.699521911,17.8714491 0.015419276,14.1743965 2.37268415,10.2255296 Z M45.4086077,3.4939199 L45.4086077,5.86276325 L40.7397859,5.86276325 L40.7397859,18.5881814 L36.8551859,18.5881814 L36.8551859,5.89673585 L31.8925684,5.89673585 L31.8925684,3.4939199 L45.4086077,3.4939199 Z M52.8358319,3.05406422 C57.0780462,3.07492459 60.5121787,6.61552439 60.5121787,10.9810026 C60.5121787,15.358997 57.0584982,18.908537 52.7987481,18.908537 C48.538998,18.908537 45.0858924,15.358997 45.0858924,10.9810026 C45.0858924,6.61552439 48.4265967,3.07492459 52.7987481,3.05495824 L52.7987481,3.0528722 C52.809672,3.0528722 52.8197335,3.05346821 52.8300825,3.05346821 L52.8358319,3.05346821 L52.8358319,3.05406422 Z M52.7996105,16.618367 C54.8599175,16.618367 56.5295509,14.098137 56.5295509,10.9893467 C56.5295509,7.8990328 54.8791781,5.39310705 52.8358319,5.36300853 L52.8358319,5.37224669 C50.583494,5.37224669 49.0688076,7.88085448 49.0688076,10.9893467 C49.0688076,14.098137 50.739016,16.618367 52.7996105,16.618367 Z M95.5399561,3.03165423 C99.7818829,3.0525146 103.215728,6.59371041 103.215728,10.9585926 C103.215728,15.337481 99.7620474,18.887021 95.5025848,18.887021 C91.2431221,18.887021 87.7894416,15.337481 87.7894416,10.9585926 C87.7894416,6.59341241 91.1298584,3.05311061 95.5025848,3.03225024 L95.5025848,3.03105822 C95.5129337,3.03105822 95.5241451,3.03165423 95.5339192,3.03165423 L95.5399561,3.03165423 Z M95.5028722,16.596553 C97.5637542,16.596553 99.2328127,14.076323 99.2328127,10.9669368 C99.2328127,7.87721882 97.5827273,5.37129307 95.5399561,5.34119455 L95.5399561,5.35043271 C93.2864683,5.35043271 91.7735067,7.8590405 91.7735067,10.9669368 C91.7735067,14.076323 93.4437151,16.596553 95.5028722,16.596553 Z M68.7194563,3.4938007 C76.0002426,3.4938007 76.3917785,15.0680247 68.6872595,15.1025933 L66.336319,15.1025933 L66.336319,18.5847841 L62.1570609,18.5847841 L62.1570609,3.4938007 L68.7194563,3.4938007 Z M67.414049,12.9360955 C71.5930197,12.9360955 71.6579882,5.59175732 67.414049,5.59175732 L66.336319,5.59175732 L66.336319,8.50267214 L66.336319,8.60429191 L66.336319,12.9360955 L67.414049,12.9360955 Z M84.4236986,16.7897796 C85.4801557,16.7897796 86.8879028,16.2480061 87.2475294,15.4696166 C87.2538538,15.4544183 87.2475294,18.2786136 87.2475294,18.2786136 C86.1289785,18.930947 84.8715789,18.8674719 83.4922915,18.8674719 C79.2535268,18.8674719 75.8176695,15.3462424 75.8176695,11.0022206 C75.8176695,6.65849674 79.2535268,3.13726727 83.4922915,3.13726727 C85.231493,3.13726727 86.9074509,3.42067022 88.1933101,4.41928565 C88.2105584,4.41928565 87.2475294,6.45376717 87.2455171,6.45197914 C86.6429772,5.82378417 85.4867676,5.23820395 84.4236986,5.23820395 C81.8821646,5.23820395 79.8218576,7.82399509 79.8218576,11.0138428 C79.8218576,14.2039885 81.8821646,16.7897796 84.4236986,16.7897796 Z M116.213428,6.42012238 L120,18.5861848 L115.533558,18.5861848 L112.360162,7.60469306 C112.001685,6.3521772 111.805342,5.67540738 110.891471,5.67540738 L108.900445,5.67540738 L108.900445,18.5861848 L105.014695,18.5802247 L105.014695,3.47940705 L111.315779,3.47940705 C113.797806,3.44543445 115.23315,3.88111806 116.213428,6.42012238 Z" id="Topcon-logo"></path>
                </g>
            </g>
        </g>
    </g>
</svg>
