<svg width="150px" height="25px" viewBox="0 0 150 25" version="1.1" xmlns="http://www.w3.org/2000/svg" xmlns:xlink="http://www.w3.org/1999/xlink">
    <g id="Symbols" stroke="none" stroke-width="1" fill="none" fill-rule="evenodd">
        <g id="header-guest" transform="translate(-645.000000, -15.000000)" fill="#FEFEFE">
            <path d="M666.699571,22.9891688 C672.260704,16.5328861 678.884762,13.3967539 681.274008,15.8135761 C682.874145,17.4309993 682.309623,21.3683931 680.111186,25.692076 L648.354948,27.2044524 C649.215924,25.8462937 650.285318,24.3260947 651.437359,22.9891688 C656.997414,16.5328861 663.62255,13.3967539 666.011796,15.8135761 C667.491914,17.3106797 667.139043,20.7451897 665.33516,24.6755058 C665.765648,24.1096684 666.220572,23.5464386 666.699571,22.9891688 Z M647.965855,27.781912 L647.973042,27.7964398 L678.050448,29.1396982 C677.343628,30.1726587 676.591172,31.1370781 675.724446,32.1432181 C670.163672,38.5995009 663.58525,41.5821604 661.195286,39.1660832 C659.723432,37.6779198 660.045041,34.3350464 661.8076,30.4777416 C661.381064,31.0383639 660.934046,31.5948886 660.461515,32.1432181 C654.900382,38.5995009 648.321242,41.5821604 645.932714,39.1660832 C644.125598,37.3393114 645.019274,32.7179957 647.965855,27.781912 Z M701.76076,19.3673999 L701.76076,22.3284541 L695.924732,22.3284541 L695.924732,38.2352267 L691.068982,38.2352267 L691.068982,22.3709198 L684.86571,22.3709198 L684.86571,19.3673999 L701.76076,19.3673999 Z M711.04479,18.8175803 C716.347558,18.8436557 720.640223,23.2694055 720.640223,28.7262532 C720.640223,34.1987463 716.323123,38.6356712 710.998435,38.6356712 C705.673747,38.6356712 701.357366,34.1987463 701.357366,28.7262532 C701.357366,23.2694055 705.533246,18.8436557 710.998435,18.8186978 L710.998435,18.8160903 C711.01209,18.8160903 711.024667,18.8168353 711.037603,18.8168353 L711.04479,18.8168353 L711.04479,18.8175803 Z M710.999513,35.7729588 C713.574897,35.7729588 715.661939,32.6226713 715.661939,28.7366834 C715.661939,24.873791 713.598973,21.7413838 711.04479,21.7037607 L711.04479,21.7153084 C708.229368,21.7153084 706.33601,24.8510681 706.33601,28.7366834 C706.33601,32.6226713 708.42377,35.7729588 710.999513,35.7729588 Z M764.424945,18.7895678 C769.727354,18.8156432 774.01966,23.242138 774.01966,28.6982408 C774.01966,34.1718513 769.702559,38.6087763 764.378231,38.6087763 C759.053903,38.6087763 754.736802,34.1718513 754.736802,28.6982408 C754.736802,23.2417655 758.912323,18.8163883 764.378231,18.7903128 L764.378231,18.7888228 C764.391167,18.7888228 764.405181,18.7895678 764.417399,18.7895678 L764.424945,18.7895678 Z M764.37859,35.7456913 C766.954693,35.7456913 769.041016,32.5954038 769.041016,28.7086709 C769.041016,24.8465235 766.978409,21.7141163 764.424945,21.6764932 L764.424945,21.6880409 C761.608085,21.6880409 759.716883,24.8238006 759.716883,28.7086709 C759.716883,32.5954038 761.804644,35.7456913 764.37859,35.7456913 Z M730.89932,19.3672509 C740.000303,19.3672509 740.489723,33.8350309 730.859074,33.8782417 L727.920399,33.8782417 L727.920399,38.2309802 L722.696326,38.2309802 L722.696326,19.3672509 L730.89932,19.3672509 Z M729.267561,31.1701194 C734.491275,31.1701194 734.572485,21.9896967 729.267561,21.9896967 L727.920399,21.9896967 L727.920399,25.6283402 L727.920399,25.7553649 L727.920399,31.1701194 L729.267561,31.1701194 Z M750.529623,35.9872245 C751.850195,35.9872245 753.609879,35.3100077 754.059412,34.3370207 C754.067317,34.3180229 754.059412,37.848267 754.059412,37.848267 C752.661223,38.6636837 751.089474,38.5843398 749.365364,38.5843398 C744.066909,38.5843398 739.772087,34.182803 739.772087,28.7527757 C739.772087,23.3231209 744.066909,18.9215841 749.365364,18.9215841 C751.539366,18.9215841 753.634314,19.2758378 755.241638,20.5241071 C755.263198,20.5241071 754.059412,23.067209 754.056896,23.0649739 C753.303722,22.2797302 751.858459,21.5477549 750.529623,21.5477549 C747.352706,21.5477549 744.777322,24.7799939 744.777322,28.7673035 C744.777322,32.7549856 747.352706,35.9872245 750.529623,35.9872245 Z M790.266785,23.025153 L795,38.2327309 L789.416948,38.2327309 L785.450203,24.5058663 C785.002107,22.9402215 784.756678,22.0942592 783.614339,22.0942592 L781.125556,22.0942592 L781.125556,38.2327309 L776.268368,38.2252808 L776.268368,19.3492588 L784.144723,19.3492588 C787.247258,19.3067931 789.041438,19.8513976 790.266785,23.025153 Z" id="Topcon-logo"></path>
        </g>
    </g>
</svg>
