<svg width="20px" height="20px" viewBox="0 0 20 20" version="1.1" xmlns="http://www.w3.org/2000/svg" xmlns:xlink="http://www.w3.org/1999/xlink">
    <g id="Symbols" stroke="none" stroke-width="1" fill="none" fill-rule="evenodd">
        <g id="header-guest" transform="translate(-1356.000000, -17.000000)" stroke="#FFFFFF" stroke-width="1.5">
            <g id="Group-2" transform="translate(1357.000000, 18.000000)">
                <path d="M8.5,9 C7.25437974,9 6.19298684,8.56140789 5.31578947,7.68421053 C4.43859211,6.80701316 4,5.74562026 4,4.5 C4,3.25437974 4.43859211,2.19298684 5.31578947,1.31578947 C6.19298684,0.438592105 7.25437974,0 8.5,0 C9.74562026,0 10.8070132,0.438592105 11.6842105,1.31578947 C12.5614079,2.19298684 13,3.25437974 13,4.5 C13,5.74562026 12.5614079,6.80701316 11.6842105,7.68421053 C10.8070132,8.56140789 9.74562026,9 8.5,9 Z M9,11 C10.1085099,11 11.3313716,11.1640609 12.6686217,11.4921875 C14.0058718,11.8203141 15.2287335,12.3580692 16.3372434,13.1054688 C17.4457533,13.8528683 18,14.7005161 18,15.6484375 L18,18 L0,18 L0,15.6484375 C0,14.7005161 0.554246657,13.8528683 1.6627566,13.1054688 C2.77126654,12.3580692 3.99412821,11.8203141 5.3313783,11.4921875 C6.66862839,11.1640609 7.89149006,11 9,11 Z" id="Profile"></path>
            </g>
        </g>
    </g>
</svg>
